<svg width="37" height="37" viewBox="0 0 37 37" fill="none" xmlns="http://www.w3.org/2000/svg">
<path id="Subtract" fill-rule="evenodd" clip-rule="evenodd" d="M5.54424 31.4558L0 37H22.6894L24.1523 26.1599L22.5939 28.2038C18.5303 33.5334 11.1519 34.8459 5.54424 31.4558ZM24.1611 10.7227L22.5904 8.66136C18.5079 3.30344 11.0767 2.00385 5.45904 5.45904L0 0H22.7156L24.1611 10.7227ZM29.9661 18.4389C33.4627 24.0648 32.1721 31.5347 26.7979 35.6328L25.0609 36.9573C31.7444 36.4176 37 30.8225 37 24V13C37 6.24679 31.8507 0.696278 25.2642 0.0606786L26.8358 1.25908C32.1892 5.36428 33.4661 12.8231 29.9661 18.4389ZM22.9655 18.4387C21.1133 22.1818 17.494 24.9669 13.0437 25.5665L10.8307 25.8646C13.9112 21.3935 13.8763 15.4231 10.7262 10.986L13.0414 11.2982C17.4951 11.8988 21.1158 14.6894 22.9655 18.4387Z" fill="#CC2936"/>
</svg>
